<?xml version="1.0" encoding="UTF-8" standalone="no"?>
<!-- Created with Inkscape (http://www.inkscape.org/) -->

<svg
   xmlns:osb="http://www.openswatchbook.org/uri/2009/osb"
   xmlns:dc="http://purl.org/dc/elements/1.1/"
   xmlns:cc="http://creativecommons.org/ns#"
   xmlns:rdf="http://www.w3.org/1999/02/22-rdf-syntax-ns#"
   xmlns:svg="http://www.w3.org/2000/svg"
   xmlns="http://www.w3.org/2000/svg"
   xmlns:xlink="http://www.w3.org/1999/xlink"
   xmlns:sodipodi="http://sodipodi.sourceforge.net/DTD/sodipodi-0.dtd"
   xmlns:inkscape="http://www.inkscape.org/namespaces/inkscape"
   width="112mm"
   height="55mm"
   viewBox="0 0 396.85016 194.88176"
   id="svg2"
   version="1.1"
   inkscape:version="0.91 r13725"
   sodipodi:docname="logo.svg">
  <defs
     id="defs4">
    <linearGradient
       inkscape:collect="always"
       id="linearGradient4789">
      <stop
         style="stop-color:#865558;stop-opacity:1;"
         offset="0"
         id="stop4791" />
      <stop
         style="stop-color:#865558;stop-opacity:0;"
         offset="1"
         id="stop4793" />
    </linearGradient>
    <linearGradient
       inkscape:collect="always"
       id="linearGradient4545">
      <stop
         style="stop-color:#f6e7d4;stop-opacity:1"
         offset="0"
         id="stop4547" />
      <stop
         style="stop-color:#f6e782;stop-opacity:0"
         offset="1"
         id="stop4549" />
    </linearGradient>
    <linearGradient
       id="linearGradient4167"
       osb:paint="solid">
      <stop
         style="stop-color:#000000;stop-opacity:1;"
         offset="0"
         id="stop4169" />
    </linearGradient>
    <radialGradient
       inkscape:collect="always"
       xlink:href="#linearGradient4545"
       id="radialGradient4551"
       cx="262.00272"
       cy="260.07733"
       fx="262.00272"
       fy="260.07733"
       r="74.021156"
       gradientTransform="matrix(2.4771894,-0.62861487,0.56557194,2.2287551,-688.59719,550.27611)"
       gradientUnits="userSpaceOnUse" />
    <radialGradient
       inkscape:collect="always"
       xlink:href="#linearGradient4789"
       id="radialGradient4795"
       cx="305.64792"
       cy="290.78375"
       fx="305.64792"
       fy="290.78375"
       r="205.06096"
       gradientTransform="matrix(2.2760892,-0.10003888,0.03437732,0.7331288,-593.27309,797.74133)"
       gradientUnits="userSpaceOnUse" />
  </defs>
  <sodipodi:namedview
     id="base"
     pagecolor="#ffffff"
     bordercolor="#666666"
     borderopacity="1.0"
     inkscape:pageopacity="0.0"
     inkscape:pageshadow="2"
     inkscape:zoom="1.3233606"
     inkscape:cx="458.29866"
     inkscape:cy="244.9523"
     inkscape:document-units="px"
     inkscape:current-layer="text4332"
     showgrid="false"
     inkscape:window-width="1920"
     inkscape:window-height="1061"
     inkscape:window-x="0"
     inkscape:window-y="0"
     inkscape:window-maximized="1" />
  <metadata
     id="metadata7">
    <rdf:RDF>
      <cc:Work
         rdf:about="">
        <dc:format>image/svg+xml</dc:format>
        <dc:type
           rdf:resource="http://purl.org/dc/dcmitype/StillImage" />
        <dc:title />
      </cc:Work>
    </rdf:RDF>
  </metadata>
  <g
     inkscape:groupmode="layer"
     id="layer3"
     inkscape:label="bruin"
     transform="translate(0,-857.48094)">
    <rect
       style="fill:#4d1c1f;fill-opacity:1;stroke:#4d1c1f;stroke-width:0;stroke-linecap:square;stroke-linejoin:round;stroke-miterlimit:4;stroke-dasharray:none;stroke-opacity:1"
       id="rect4193"
       width="414.27802"
       height="204.10062"
       x="-6.3021798"
       y="855.13818" />
  </g>
  <g
     inkscape:label="bruin gradient"
     id="g4517"
     inkscape:groupmode="layer"
     transform="translate(0,-857.48094)">
    <rect
       y="854.38251"
       x="-2.1460996"
       height="206.74539"
       width="410.12192"
       id="rect4519"
       style="fill:url(#radialGradient4795);fill-opacity:1;stroke:#4d1c1f;stroke-width:0;stroke-linecap:square;stroke-linejoin:round;stroke-miterlimit:4;stroke-dasharray:none;stroke-opacity:1" />
  </g>
  <g
     inkscape:groupmode="layer"
     id="layer5"
     inkscape:label="text"
     transform="translate(0,-857.48094)">
    <g
       style="font-style:normal;font-variant:normal;font-weight:normal;font-stretch:normal;font-size:60px;line-height:125%;font-family:Sans;-inkscape-font-specification:'Sans, Normal';text-align:start;letter-spacing:0px;word-spacing:0px;writing-mode:lr-tb;text-anchor:start;fill:#dadb9a;fill-opacity:1;stroke:#65897f;stroke-width:3;stroke-linecap:square;stroke-linejoin:miter;stroke-miterlimit:13.19999981;stroke-dasharray:none;stroke-opacity:1"
       id="text4332">
      <path
         d="m 182.58278,1003.5101 0,-17.75387 5.39062,0 0,45.58597 -5.39062,0 0,-4.9219 q -1.69922,2.9297 -4.30664,4.3652 -2.57813,1.4063 -6.21094,1.4063 -5.94726,0 -9.69726,-4.7461 -3.72071,-4.7461 -3.72071,-12.4805 0,-7.7344 3.72071,-12.4805 3.75,-4.74605 9.69726,-4.74605 3.63281,0 6.21094,1.43554 2.60742,1.40621 4.30664,4.33591 z m -18.36914,11.4551 q 0,5.9473 2.43164,9.3457 2.46094,3.3692 6.73828,3.3692 4.27734,0 6.73828,-3.3692 2.46094,-3.3984 2.46094,-9.3457 0,-5.9473 -2.46094,-9.3164 -2.46094,-3.3984 -6.73828,-3.3984 -4.27734,0 -6.73828,3.3984 -2.43164,3.3691 -2.43164,9.3164 z"
         style=""
         id="path4167" />
      <path
         d="m 199.07692,998.52966 5.39062,0 0,33.39844 q 0,6.2695 -2.40234,9.082 -2.37305,2.8125 -7.67578,2.8125 l -2.05078,0 0,-4.5703 1.43555,0 q 3.07617,0 4.18945,-1.4355 1.11328,-1.4063 1.11328,-5.8887 l 0,-33.39844 z m 0,-12.77343 5.39062,0 0,6.82617 -5.39062,0 0,-6.82617 z"
         style=""
         id="path4169" />
      <path
         d="m 230.62965,1014.848 q -6.5332,0 -9.05273,1.4942 -2.51953,1.4941 -2.51953,5.0976 0,2.8711 1.875,4.5703 1.9043,1.67 5.15625,1.67 4.48242,0 7.17773,-3.1641 2.72461,-3.1934 2.72461,-8.4668 l 0,-1.2012 -5.36133,0 z m 10.75196,-2.2265 0,18.7207 -5.39063,0 0,-4.9805 q -1.8457,2.9883 -4.59961,4.4238 -2.7539,1.4063 -6.73828,1.4063 -5.03906,0 -8.02734,-2.8125 -2.95899,-2.8418 -2.95899,-7.5879 0,-5.5371 3.69141,-8.3496 3.7207,-2.8125 11.07422,-2.8125 l 7.55859,0 0,-0.5274 q 0,-3.7207 -2.46094,-5.7422 -2.43164,-2.0507 -6.85546,-2.0507 -2.8125,0 -5.47852,0.6738 -2.66602,0.6738 -5.12695,2.0215 l 0,-4.9805 q 2.95898,-1.14257 5.74218,-1.69922 2.78321,-0.58593 5.41993,-0.58593 7.11914,0 10.63476,3.69145 3.51563,3.6914 3.51563,11.1914 z"
         style=""
         id="path4171" />
      <path
         d="m 271.52809,1003.5687 q -0.9082,-0.5273 -1.99219,-0.7617 -1.05468,-0.2637 -2.34375,-0.2637 -4.57031,0 -7.03125,2.9883 -2.43164,2.959 -2.43164,8.5254 l 0,17.2852 -5.41992,0 0,-32.81254 5.41992,0 0,5.09764 q 1.69922,-2.9883 4.42383,-4.42381 2.72461,-1.46484 6.6211,-1.46484 0.55664,0 1.23046,0.0879 0.67383,0.0586 1.49414,0.20508 l 0.0293,5.53708 z"
         style=""
         id="path4173" />
      <path
         d="m 317.93434,1003.5101 0,-17.75387 5.39063,0 0,45.58597 -5.39063,0 0,-4.9219 q -1.69922,2.9297 -4.30664,4.3652 -2.57812,1.4063 -6.21094,1.4063 -5.94726,0 -9.69726,-4.7461 -3.72071,-4.7461 -3.72071,-12.4805 0,-7.7344 3.72071,-12.4805 3.75,-4.74605 9.69726,-4.74605 3.63282,0 6.21094,1.43554 2.60742,1.40621 4.30664,4.33591 z m -18.36914,11.4551 q 0,5.9473 2.43164,9.3457 2.46094,3.3692 6.73828,3.3692 4.27735,0 6.73828,-3.3692 2.46094,-3.3984 2.46094,-9.3457 0,-5.9473 -2.46094,-9.3164 -2.46093,-3.3984 -6.73828,-3.3984 -4.27734,0 -6.73828,3.3984 -2.43164,3.3691 -2.43164,9.3164 z"
         style=""
         id="path4175" />
      <path
         d="m 334.42848,998.52966 5.39063,0 0,33.39844 q 0,6.2695 -2.40235,9.082 -2.37304,2.8125 -7.67578,2.8125 l -2.05078,0 0,-4.5703 1.43555,0 q 3.07617,0 4.18945,-1.4355 1.11328,-1.4063 1.11328,-5.8887 l 0,-33.39844 z m 0,-12.77343 5.39063,0 0,6.82617 -5.39063,0 0,-6.82617 z"
         style=""
         id="path4177" />
      <path
         d="m 365.98122,1014.848 q -6.53321,0 -9.05274,1.4942 -2.51953,1.4941 -2.51953,5.0976 0,2.8711 1.875,4.5703 1.9043,1.67 5.15625,1.67 4.48242,0 7.17774,-3.1641 2.7246,-3.1934 2.7246,-8.4668 l 0,-1.2012 -5.36132,0 z m 10.75195,-2.2265 0,18.7207 -5.39063,0 0,-4.9805 q -1.8457,2.9883 -4.5996,4.4238 -2.75391,1.4063 -6.73829,1.4063 -5.03906,0 -8.02734,-2.8125 -2.95898,-2.8418 -2.95898,-7.5879 0,-5.5371 3.6914,-8.3496 3.72071,-2.8125 11.07422,-2.8125 l 7.55859,0 0,-0.5274 q 0,-3.7207 -2.46093,-5.7422 -2.43164,-2.0507 -6.85547,-2.0507 -2.8125,0 -5.47852,0.6738 -2.66601,0.6738 -5.12695,2.0215 l 0,-4.9805 q 2.95898,-1.14257 5.74219,-1.69922 2.7832,-0.58593 5.41992,-0.58593 7.11914,0 10.63476,3.69145 3.51563,3.6914 3.51563,11.1914 z"
         style=""
         id="path4179" />
      <path
         d="m 387.86598,985.75623 5.39063,0 0,45.58597 -5.39063,0 0,-45.58597 z"
         style=""
         id="path4181" />
    </g>
  </g>
  <g
     inkscape:groupmode="layer"
     id="layer2"
     inkscape:label="hoofd"
     style="display:inline"
     transform="translate(0,-857.48094)">
    <path
       style="fill:#6e7818;fill-opacity:1;fill-rule:evenodd;stroke:#65897f;stroke-width:3;stroke-linecap:round;stroke-linejoin:round;stroke-miterlimit:4;stroke-dasharray:none;stroke-opacity:1"
       d="m 13.056677,858.10098 c 31.23617,3.83577 45.78949,18.90031 59.346457,36.61803 14.04677,18.35783 8.60021,35.93677 19.44544,50.25509 3.30372,4.36171 9.646146,9.16901 13.131976,9.84899 13.75751,2.65288 17.434,11.06035 12.62691,25.50635 -1.8208,5.47175 8.47059,2.49631 14.39467,9.59645 4.05715,5.92025 1.25251,8.58018 0,13.88961 -0.8428,5.4482 6.43632,4.9187 7.57615,11.3642 1.12085,6.3383 -3.27477,6.715 -3.78807,10.3541 -1.00186,7.1027 0.75824,14.7494 1.51523,21.4657 0.27598,2.4486 -1.47284,8.906 -2.10162,11.3433 -0.37062,1.4366 -101.108183,0.1455 -139.0701341,0.7805 -1.0921,0.018 -1.33716,-158.87051 -1.43431,-200.26454 1.34264,-2.91022 14.889431,-1.23611 18.3573011,-0.75778 z"
       id="path3404"
       inkscape:connector-curvature="0"
       sodipodi:nodetypes="csacsccssssscc" />
  </g>
  <g
     style="display:inline"
     inkscape:label="hoofd gradient"
     id="g4257"
     inkscape:groupmode="layer"
     transform="translate(0,-857.48094)">
    <path
       sodipodi:nodetypes="csacsccssssscc"
       inkscape:connector-curvature="0"
       id="path4259"
       d="m 13.056677,858.10098 c 31.23617,3.83577 45.78949,18.90031 59.346457,36.61803 14.04677,18.35783 8.60021,35.93677 19.44544,50.25509 3.30372,4.36171 9.646146,9.16901 13.131976,9.84899 13.75751,2.65288 17.434,11.06035 12.62691,25.50635 -1.8208,5.47175 8.47059,2.49631 14.39467,9.59645 4.05715,5.92025 1.25251,8.58018 0,13.88961 -0.8428,5.4482 6.43632,4.9187 7.57615,11.3642 1.12085,6.3383 -3.27477,6.715 -3.78807,10.3541 -1.00186,7.1027 0.75824,14.7494 1.51523,21.4657 0.27598,2.4486 -1.47284,8.906 -2.10162,11.3433 -0.37062,1.4366 -101.108183,0.1455 -139.0701341,0.7805 -1.0921,0.018 -1.33716,-158.87051 -1.43431,-200.26454 1.34264,-2.91022 14.889431,-1.23611 18.3573011,-0.75778 z"
       style="opacity:0.81000001;fill:url(#radialGradient4551);fill-opacity:1;fill-rule:evenodd;stroke:none;stroke-width:3;stroke-linecap:round;stroke-linejoin:round;stroke-miterlimit:4;stroke-dasharray:none;stroke-opacity:1" />
  </g>
  <g
     inkscape:groupmode="layer"
     id="layer4"
     inkscape:label="hand"
     style="display:inline"
     transform="translate(0,-857.48094)">
    <path
       style="fill:none;fill-rule:evenodd;stroke:#65897f;stroke-width:5;stroke-linecap:butt;stroke-linejoin:miter;stroke-miterlimit:4;stroke-dasharray:none;stroke-opacity:1"
       d="m 169.95012,926.62408 c -2.97451,9.42118 27.0862,-51.24565 39.68673,-53.78301 8.33965,-1.67935 -7.35005,23.34426 -12.42784,47.55858 -4.02172,19.17828 42.76712,-48.31306 45.96701,-37.71213 3.22453,10.68259 -20.30731,30.43063 -28.48822,48.21684 -7.71342,16.76983 37.78214,-37.1212 41.74258,-30.72789 4.38675,7.08149 -25.73566,27.06123 -29.85552,44.24258 -2.48362,16.89835 29.90805,-29.85324 35.72771,-21.9478 2.09105,2.84048 -46.91156,53.15597 -41.90208,43.79711 9.31139,-17.3958 -9.08392,-30.22363 -26.45671,-26.23184 -7.53298,-10.21129 -13.51324,-18.85602 -40.97363,-7.46543 -0.97481,0.40435 -0.22533,-35.2991 -7.59583,-30.9495 -7.39815,4.36592 -2.90632,25.12359 0.80377,34.75296 1.0598,2.75066 5.73558,-4.29252 6.74334,-3.66559"
       id="path4205"
       inkscape:connector-curvature="0"
       sodipodi:nodetypes="cssssscsscsssc" />
  </g>
  <g
     inkscape:groupmode="layer"
     id="layer8"
     inkscape:label="hart"
     transform="translate(0,-857.48094)">
    <path
       style="fill:#eee2a7;fill-opacity:1;fill-rule:evenodd;stroke:#000000;stroke-width:1px;stroke-linecap:butt;stroke-linejoin:miter;stroke-opacity:1"
       d="m 147.32486,1000.3519 c 7.37445,-12.51152 1.40696,-34.82299 3.53553,-58.3363 1.38644,-15.31534 34.97431,-23.45315 43.48707,0 28.86694,-4.11492 35.30782,25.34339 12.37437,38.53732 21.1921,-23.39248 1.01944,-39.24353 -13.43503,-33.94113 -1.08512,-12.30436 -32.66208,-22.85303 -38.53732,-1.41421 -1.42817,5.21143 1.57135,22.46787 0.63516,34.2068 -0.88577,11.10674 -5.67468,16.73711 -8.05978,20.94752 z"
       id="path4189"
       inkscape:connector-curvature="0"
       sodipodi:nodetypes="cscccssc" />
    <path
       style="fill:none;fill-rule:evenodd;stroke:#65897f;stroke-width:1px;stroke-linecap:butt;stroke-linejoin:miter;stroke-opacity:1"
       d="m 146.52309,1002.4518 c 5.90254,-12.78303 2.12232,-38.90137 3.18198,-60.1041 0.80166,-16.04037 36.89608,-29.14826 45.60839,-2.12131 21.40116,-8.31404 41.88952,24.54616 9.89949,42.07284 19.16619,-23.93376 5.26141,-40.34413 -12.72792,-34.47145 -3.56682,-18.26394 -40.87647,-20.88676 -37.19252,6.27761 5.3931,39.76722 -6.64211,42.77583 -8.76942,48.34641 z"
       id="path4839"
       inkscape:connector-curvature="0"
       sodipodi:nodetypes="cscccsc" />
  </g>
</svg>
