<?xml version="1.0" encoding="UTF-8" standalone="no"?>
<!-- Created with Inkscape (http://www.inkscape.org/) -->

<svg
   xmlns:osb="http://www.openswatchbook.org/uri/2009/osb"
   xmlns:dc="http://purl.org/dc/elements/1.1/"
   xmlns:cc="http://creativecommons.org/ns#"
   xmlns:rdf="http://www.w3.org/1999/02/22-rdf-syntax-ns#"
   xmlns:svg="http://www.w3.org/2000/svg"
   xmlns="http://www.w3.org/2000/svg"
   xmlns:xlink="http://www.w3.org/1999/xlink"
   xmlns:sodipodi="http://sodipodi.sourceforge.net/DTD/sodipodi-0.dtd"
   xmlns:inkscape="http://www.inkscape.org/namespaces/inkscape"
   width="187mm"
   height="90mm"
   viewBox="0 0 662.59766 318.89726"
   id="svg2"
   version="1.1"
   inkscape:version="0.91 r13725"
   sodipodi:docname="logo.svg">
  <defs
     id="defs4">
    <linearGradient
       inkscape:collect="always"
       id="linearGradient4789">
      <stop
         style="stop-color:#865558;stop-opacity:1;"
         offset="0"
         id="stop4791" />
      <stop
         style="stop-color:#865558;stop-opacity:0;"
         offset="1"
         id="stop4793" />
    </linearGradient>
    <linearGradient
       inkscape:collect="always"
       id="linearGradient4545">
      <stop
         style="stop-color:#f6e7d4;stop-opacity:1"
         offset="0"
         id="stop4547" />
      <stop
         style="stop-color:#f6e782;stop-opacity:0"
         offset="1"
         id="stop4549" />
    </linearGradient>
    <linearGradient
       id="linearGradient4167"
       osb:paint="solid">
      <stop
         style="stop-color:#000000;stop-opacity:1;"
         offset="0"
         id="stop4169" />
    </linearGradient>
    <radialGradient
       inkscape:collect="always"
       xlink:href="#linearGradient4545"
       id="radialGradient4551"
       cx="262.00272"
       cy="260.07733"
       fx="262.00272"
       fy="260.07733"
       r="74.021156"
       gradientTransform="matrix(4.0384282,-1.0247964,0.92202102,3.6334175,-1118.2967,228.31383)"
       gradientUnits="userSpaceOnUse" />
    <radialGradient
       inkscape:collect="always"
       xlink:href="#linearGradient4789"
       id="radialGradient4795"
       cx="305.64792"
       cy="290.78375"
       fx="305.64792"
       fy="290.78375"
       r="205.06096"
       gradientTransform="matrix(3.7105855,-0.16308805,0.05604357,1.1951802,-962.89531,631.74345)"
       gradientUnits="userSpaceOnUse" />
  </defs>
  <sodipodi:namedview
     id="base"
     pagecolor="#ffffff"
     bordercolor="#666666"
     borderopacity="1.0"
     inkscape:pageopacity="0.0"
     inkscape:pageshadow="2"
     inkscape:zoom="1.3233606"
     inkscape:cx="458.29866"
     inkscape:cy="244.9523"
     inkscape:document-units="px"
     inkscape:current-layer="text4332"
     showgrid="false"
     inkscape:window-width="1920"
     inkscape:window-height="1061"
     inkscape:window-x="0"
     inkscape:window-y="0"
     inkscape:window-maximized="1" />
  <metadata
     id="metadata7">
    <rdf:RDF>
      <cc:Work
         rdf:about="">
        <dc:format>image/svg+xml</dc:format>
        <dc:type
           rdf:resource="http://purl.org/dc/dcmitype/StillImage" />
        <dc:title></dc:title>
      </cc:Work>
    </rdf:RDF>
  </metadata>
  <g
     inkscape:groupmode="layer"
     id="layer3"
     inkscape:label="bruin"
     transform="translate(0,-733.46544)">
    <rect
       style="fill:#4d1c1f;fill-opacity:1;stroke:#4d1c1f;stroke-width:0;stroke-linecap:square;stroke-linejoin:round;stroke-miterlimit:4;stroke-dasharray:none;stroke-opacity:1"
       id="rect4193"
       width="675.37494"
       height="332.73386"
       x="-5.9880443"
       y="725.3139" />
  </g>
  <g
     inkscape:label="bruin gradient"
     id="g4517"
     inkscape:groupmode="layer"
     transform="translate(0,-733.46544)">
    <rect
       y="724.08228"
       x="0.78738654"
       height="337.04578"
       width="668.59906"
       id="rect4519"
       style="fill:url(#radialGradient4795);fill-opacity:1;stroke:#4d1c1f;stroke-width:0;stroke-linecap:square;stroke-linejoin:round;stroke-miterlimit:4;stroke-dasharray:none;stroke-opacity:1" />
  </g>
  <g
     inkscape:groupmode="layer"
     id="layer5"
     inkscape:label="text"
     transform="translate(0,-733.46544)">
    <g
       style="font-style:normal;font-variant:normal;font-weight:normal;font-stretch:normal;font-size:60px;line-height:125%;font-family:Sans;-inkscape-font-specification:'Sans, Normal';text-align:start;letter-spacing:0px;word-spacing:0px;writing-mode:lr-tb;text-anchor:start;fill:#dadb9a;fill-opacity:1;stroke:#65897f;stroke-width:3;stroke-linecap:square;stroke-linejoin:miter;stroke-miterlimit:13.19999981;stroke-dasharray:none;stroke-opacity:1"
       id="text4332">
      <path
         d="m 301.94085,967.19693 0,-28.94354 8.78788,0 0,74.31781 -8.78788,0 0,-8.0251 q -2.77006,4.7737 -7.02099,7.1152 -4.20283,2.2914 -10.12544,2.2914 -9.69529,0 -15.80888,-7.7371 -6.0657,-7.73494 -6.0657,-20.34452 0,-12.60864 6.0657,-20.3462 6.11359,-7.73725 15.80888,-7.73725 5.92261,0 10.12544,2.34029 4.25093,2.29233 7.02099,7.06901 z m -29.94635,18.67415 q 0,9.69482 3.96422,15.23762 4.012,5.4903 10.98513,5.4903 6.97297,0 10.98506,-5.4903 4.01194,-5.5428 4.01194,-15.23762 0,-9.69412 -4.01194,-15.18795 -4.01209,-5.54013 -10.98506,-5.54013 -6.97313,0 -10.98513,5.54013 -3.96422,5.49383 -3.96422,15.18795 z"
         id="path4167"
         inkscape:connector-curvature="0"
         style="stroke-width:4.8907218" />
      <path
         d="m 328.83046,959.07718 8.78783,0 0,54.44832 q 0,10.2187 -3.91639,14.8048 -3.86862,4.5839 -12.51335,4.5839 l -3.34322,0 0,-7.4495 2.34018,0 q 5.01488,0 6.82984,-2.3403 1.81511,-2.2921 1.81511,-9.5989 l 0,-54.44832 z m 0,-20.82379 8.78783,0 0,11.12835 -8.78783,0 0,-11.12835 z"
         id="path4169"
         inkscape:connector-curvature="0"
         style="stroke-width:4.8907218" />
      <path
         d="m 380.26893,985.68018 q -10.65071,0 -14.75812,2.4351 -4.10743,2.43697 -4.10743,8.30914 0,4.68428 3.05667,7.45358 3.1046,2.721 8.406,2.721 7.30732,0 11.70154,-5.1563 4.44166,-5.20828 4.44166,-13.8031 l 0,-1.95942 -8.74032,0 z m 17.52845,-3.62997 0,30.52099 -8.78813,0 0,-8.1197 q -3.00877,4.8683 -7.49829,7.2098 -4.48956,2.2914 -10.98526,2.2914 -8.21497,0 -13.08642,-4.5832 -4.82387,-4.6331 -4.82387,-12.36976 0,-9.0259 6.0178,-13.61198 6.06584,-4.58492 18.05369,-4.58492 l 12.32235,0 0,-0.86013 q 0,-6.06554 -4.01184,-9.36064 -3.96419,-3.34304 -11.17612,-3.34304 -4.58507,0 -8.93129,1.09819 -4.34638,1.0978 -8.35828,3.2954 l 0,-8.11967 q 4.82404,-1.86263 9.36132,-2.76997 4.53727,-0.95535 8.83576,-0.95535 11.60584,0 17.33718,6.01799 5.7314,6.01805 5.7314,18.24459 z"
         id="path4171"
         inkscape:connector-curvature="0"
         style="stroke-width:4.8907218" />
      <path
         d="m 446.94347,967.29237 q -1.48055,-0.86052 -3.24765,-1.24112 -1.7195,-0.43072 -3.8209,-0.43072 -7.45077,0 -11.46288,4.87093 -3.96407,4.82408 -3.96407,13.89887 l 0,28.18087 -8.83572,0 0,-53.49402 8.83572,0 0,8.30994 q 2.77016,-4.87103 7.21196,-7.2114 4.44195,-2.38809 10.79388,-2.38809 0.90761,0 2.00614,0.14254 1.09858,0.0948 2.43579,0.33456 l 0.0464,9.02714 z"
         id="path4173"
         inkscape:connector-curvature="0"
         style="stroke-width:4.8907218" />
      <path
         d="m 522.59708,967.19693 0,-28.94354 8.78808,0 0,74.31781 -8.78808,0 0,-8.0251 q -2.77008,4.7737 -7.02078,7.1152 -4.20305,2.2914 -10.12547,2.2914 -9.69549,0 -15.80901,-7.7371 -6.06562,-7.73494 -6.06562,-20.34452 0,-12.60864 6.06562,-20.3462 6.11352,-7.73725 15.80901,-7.73725 5.92242,0 10.12547,2.34029 4.2507,2.29233 7.02078,7.06901 z m -29.94624,18.67415 q 0,9.69482 3.96424,15.23762 4.01182,5.4903 10.98499,5.4903 6.97315,0 10.98513,-5.4903 4.01188,-5.5428 4.01188,-15.23762 0,-9.69412 -4.01188,-15.18795 -4.01198,-5.54013 -10.98513,-5.54013 -6.97317,0 -10.98499,5.54013 -3.96424,5.49383 -3.96424,15.18795 z"
         id="path4175"
         inkscape:connector-curvature="0"
         style="stroke-width:4.8907218" />
      <path
         d="m 549.48663,959.07718 8.78798,0 0,54.44832 q 0,10.2187 -3.91634,14.8048 -3.86864,4.5839 -12.51346,4.5839 l -3.34317,0 0,-7.4495 2.34029,0 q 5.01486,0 6.82982,-2.3403 1.81488,-2.2921 1.81488,-9.5989 l 0,-54.44832 z m 0,-20.82379 8.78798,0 0,11.12835 -8.78798,0 0,-11.12835 z"
         id="path4177"
         inkscape:connector-curvature="0"
         style="stroke-width:4.8907218" />
      <path
         d="m 600.92539,985.68018 q -10.65076,0 -14.75819,2.4351 -4.10785,2.43697 -4.10785,8.30914 0,4.68428 3.05707,7.45358 3.10445,2.721 8.40599,2.721 7.30741,0 11.70139,-5.1563 4.44167,-5.20828 4.44167,-13.8031 l 0,-1.95942 -8.74008,0 z m 17.52826,-3.62997 0,30.52099 -8.78818,0 0,-8.1197 q -3.00885,4.8683 -7.49841,7.2098 -4.48945,2.2914 -10.98503,2.2914 -8.21488,0 -13.08647,-4.5832 -4.82389,-4.6331 -4.82389,-12.36976 0,-9.0259 6.01789,-13.61198 6.06567,-4.58492 18.05372,-4.58492 l 12.32219,0 0,-0.86013 q 0,-6.06554 -4.01195,-9.36064 -3.964,-3.34304 -11.17591,-3.34304 -4.58506,0 -8.93131,1.09819 -4.34629,1.0978 -8.35819,3.2954 l 0,-8.11967 q 4.82383,-1.86263 9.36096,-2.76997 4.53743,-0.95535 8.83597,-0.95535 11.60601,0 17.33729,6.01799 5.73132,6.01805 5.73132,18.24459 z"
         id="path4179"
         inkscape:connector-curvature="0"
         style="stroke-width:4.8907218" />
      <path
         d="m 636.60283,938.25339 8.78795,0 0,74.31781 -8.78795,0 0,-74.31781 z"
         id="path4181"
         inkscape:connector-curvature="0"
         style="stroke-width:4.8907218" />
    </g>
  </g>
  <g
     inkscape:groupmode="layer"
     id="layer2"
     inkscape:label="hoofd"
     style="display:inline"
     transform="translate(0,-733.46544)">
    <path
       style="fill:#6e7818;fill-opacity:1;fill-rule:evenodd;stroke:#65897f;stroke-width:4.8907218;stroke-linecap:round;stroke-linejoin:round;stroke-miterlimit:4;stroke-dasharray:none;stroke-opacity:1"
       d="m 25.571646,730.14401 c 50.922627,6.25309 74.648124,30.81228 96.749284,59.69635 22.8997,29.92775 14.02047,58.58571 31.70085,81.92809 5.38585,7.11078 15.7256,14.94785 21.40835,16.05631 22.4279,4.32495 28.42181,18.03114 20.58485,41.5817 -2.96818,8.92027 13.80925,4.06954 23.46699,15.64438 6.61403,9.65159 2.04186,13.98778 0,22.64356 -1.37408,8.88239 10.49285,8.01866 12.35082,18.52692 1.82742,10.33213 -5.33865,10.94574 -6.17547,16.88068 -1.63328,11.5773 1.23636,24.0433 2.47037,34.9928 0.44993,3.9936 -2.40104,14.52 -3.42613,18.4944 -0.60428,2.3387 -164.83124,0.2345 -226.7185467,1.2713 -1.7803913,0.018 -2.1798994,-258.99863 -2.3382764,-326.481 2.1888333,-4.74454 24.2734201,-2.01526 29.9269091,-1.23549 z"
       id="path3404"
       inkscape:connector-curvature="0"
       sodipodi:nodetypes="csacsccssssscc" />
  </g>
  <g
     style="display:inline"
     inkscape:label="hoofd gradient"
     id="g4257"
     inkscape:groupmode="layer"
     transform="translate(0,-733.46544)">
    <path
       sodipodi:nodetypes="csacsccssssscc"
       inkscape:connector-curvature="0"
       id="path4259"
       d="m 25.571646,730.14401 c 50.922627,6.25309 74.648124,30.81228 96.749284,59.69635 22.8997,29.92775 14.02047,58.58571 31.70085,81.92809 5.38585,7.11078 15.7256,14.94785 21.40835,16.05631 22.4279,4.32495 28.42181,18.03114 20.58485,41.5817 -2.96818,8.92027 13.80925,4.06954 23.46699,15.64438 6.61403,9.65159 2.04186,13.98778 0,22.64356 -1.37408,8.88239 10.49285,8.01866 12.35082,18.52692 1.82742,10.33213 -5.33865,10.94574 -6.17547,16.88068 -1.63328,11.5773 1.23636,24.0433 2.47037,34.9928 0.44993,3.9936 -2.40104,14.52 -3.42613,18.4944 -0.60428,2.3387 -164.83124,0.2345 -226.7185467,1.2713 -1.7803913,0.018 -2.1798994,-258.99863 -2.3382764,-326.481 2.1888333,-4.74454 24.2734201,-2.01526 29.9269091,-1.23549 z"
       style="opacity:0.81000001;fill:url(#radialGradient4551);fill-opacity:1;fill-rule:evenodd;stroke:none;stroke-width:3;stroke-linecap:round;stroke-linejoin:round;stroke-miterlimit:4;stroke-dasharray:none;stroke-opacity:1" />
  </g>
  <g
     inkscape:groupmode="layer"
     id="layer4"
     inkscape:label="hand"
     style="display:inline"
     transform="translate(0,-733.46544)">
    <path
       style="fill:none;fill-rule:evenodd;stroke:#65897f;stroke-width:8.15120983;stroke-linecap:butt;stroke-linejoin:miter;stroke-miterlimit:4;stroke-dasharray:none;stroke-opacity:1"
       d="m 281.34663,841.85333 c -4.84941,15.35911 44.15694,-83.54286 64.699,-87.67944 13.59562,-2.73771 -11.98237,38.05695 -20.26043,77.53224 -6.5565,31.26522 69.72088,-78.76215 74.93754,-61.48002 5.25658,17.41519 -33.10593,49.60934 -46.44297,78.6054 -12.57458,27.3388 61.59414,-60.51682 68.0507,-50.09417 7.15155,11.54474 -41.95539,44.11653 -48.67177,72.12629 -4.04894,27.5486 48.75753,-48.66819 58.24491,-35.78032 3.40899,4.63074 -76.47737,86.65717 -68.31068,71.40008 15.17992,-28.35949 -14.8089,-49.27183 -43.13086,-42.76445 -12.28072,-16.64676 -22.02996,-30.73979 -66.79711,-12.17028 -1.58927,0.65904 -0.36729,-57.54612 -12.38318,-50.45534 -12.06079,7.11748 -4.73807,40.95765 1.31052,56.6558 1.72773,4.48435 9.35043,-6.99799 10.99316,-5.97576"
       id="path4205"
       inkscape:connector-curvature="0"
       sodipodi:nodetypes="cssssscsscsssc" />
  </g>
  <g
     inkscape:groupmode="layer"
     id="layer8"
     inkscape:label="hart"
     transform="translate(0,-733.46544)">
    <path
       style="fill:#eee2a7;fill-opacity:1;fill-rule:evenodd;stroke:#000000;stroke-width:1.63024116px;stroke-linecap:butt;stroke-linejoin:miter;stroke-opacity:1"
       d="m 244.46173,962.04797 c 12.02206,-20.39695 2.29372,-56.77016 5.7638,-95.10245 2.26018,-24.96782 57.01662,-38.23444 70.89454,0 47.06025,-6.70836 57.56047,41.31591 20.17339,62.82535 34.5484,-38.13573 1.66183,-63.97667 -21.90256,-55.33271 -1.76896,-20.05881 -53.24725,-37.25583 -62.82536,-2.30529 -2.32807,8.49589 2.56172,36.62813 1.03573,55.76542 -1.4441,18.10679 -9.25114,27.28582 -13.13954,34.14968 z"
       id="path4189"
       inkscape:connector-curvature="0"
       sodipodi:nodetypes="cscccssc" />
    <path
       style="fill:none;fill-rule:evenodd;stroke:#65897f;stroke-width:1.63024116px;stroke-linecap:butt;stroke-linejoin:miter;stroke-opacity:1"
       d="m 243.15468,965.47135 c 9.62267,-20.83956 3.45986,-63.41873 5.18743,-97.98451 1.30673,-26.14969 60.14966,-47.51877 74.3528,-3.45827 34.88911,-13.55412 68.2902,40.01616 16.13876,68.58914 31.24545,-39.01796 8.57727,-65.77092 -20.74979,-56.19714 -5.81475,-29.77466 -66.63863,-34.05041 -60.6329,10.23412 8.79219,64.83037 -10.82845,69.73502 -14.2963,78.81666 z"
       id="path4839"
       inkscape:connector-curvature="0"
       sodipodi:nodetypes="cscccsc" />
  </g>
</svg>
